<svg xmlns="http://www.w3.org/2000/svg" xmlns:xlink="http://www.w3.org/1999/xlink" width="112" height="112" viewBox="0 0 112 112">
  <defs>
    <linearGradient id="linear-gradient" x1="0.756" y1="0.971" x2="0.265" y2="0.065" gradientUnits="objectBoundingBox">
      <stop offset="0" stop-color="#a6c739"/>
      <stop offset="0.5" stop-color="#dad500"/>
      <stop offset="1" stop-color="#ed76aa"/>
    </linearGradient>
  </defs>
  <g id="Logo_Like_A_New_Kitchen_RGB" data-name="Logo Like A New Kitchen RGB" transform="translate(-456.84 -271.26)">
    <path id="Path_1" data-name="Path 1" d="M456.84,372.1V271.26H558.106s10.734,0,10.734,10.962V383.26H467.8s-10.962,0-10.962-11.163Z" transform="translate(0 0)" fill="url(#linear-gradient)"/>
    <g id="Group_1" data-name="Group 1" transform="translate(464.557 283.215)">
      <path id="Path_2" data-name="Path 2" d="M478.819,305.631v22.6c0,1.906.8,2.709,2.709,2.709h12.782c1.906,0,2.709-.8,2.709-2.709V324.46h-3.853v1.906a.845.845,0,0,1-.931.931h-8.251a.847.847,0,0,1-.931-.931v-22.6c0-1.906-.8-2.709-2.709-2.709H476.07v3.64h1.818A.828.828,0,0,1,478.819,305.631Z" transform="translate(-476.07 -301.056)" fill="#fff"/>
      <rect id="Rectangle_10" data-name="Rectangle 10" width="3.684" height="3.511" transform="translate(22.218 0.004)" fill="#fff"/>
      <path id="Path_3" data-name="Path 3" d="M527.339,313.964v14.262c0,1.906.8,2.709,2.709,2.709h9.647V320.862H541.3a2.283,2.283,0,0,1,2.115.887l3.893,7.2c.931,1.649,1.565,1.99,3.556,1.99h2.962v-3.512h-1.312c-1.06,0-1.481-.168-1.818-.847l-3.174-5.8c-.718-1.357-1.437-1.609-1.437-1.609v-.084a5.265,5.265,0,0,0,1.609-1.609l5.8-7.958h-4.7l-4.952,6.939a2.778,2.778,0,0,1-2.243.931h-1.906V303.506c0-1.906-.8-2.456-2.709-2.456h-4.061v3.511h1.734a.828.828,0,0,1,.931.931v21.923h-3.259a.828.828,0,0,1-.931-.931V312.222c0-1.906-.8-2.709-2.709-2.709H524.67v3.511h1.738a.828.828,0,0,1,.931.931Z" transform="translate(-505.217 -301.05)" fill="#fff"/>
      <path id="Path_4" data-name="Path 4" d="M605.455,343.319a12.534,12.534,0,0,0,8.251-3.13l-1.778-2.921a9.845,9.845,0,0,1-6.264,2.5,7.246,7.246,0,0,1-7.364-7.151h15.619s.128-1.144.128-1.694c0-5.542-3.214-10.029-9.226-10.029s-10.751,4.4-10.751,11.216c0,6.349,4.615,11.216,11.385,11.216Zm-.674-19.17c2.665,0,4.908,1.906,5.036,5.458H598.476A6.167,6.167,0,0,1,604.781,324.149Z" transform="translate(-546.825 -312.928)" fill="#fff"/>
      <path id="Path_5" data-name="Path 5" d="M684.663,339.3a.828.828,0,0,1-.931-.931v-9.1c0-4.739-1.862-8.379-8.8-8.379-2.075,0-7.408.51-7.408,4.021v2.115h3.853V325.8c0-1.4,2.5-1.649,3.511-1.649,3.343,0,4.739,1.352,4.739,5.121v.213H678.7c-3.6,0-12.906.421-12.906,7.32,0,4.274,3.6,6.517,7.28,6.517a7.317,7.317,0,0,0,6.814-4.234h.084a9.278,9.278,0,0,0-.084,1.268c0,1.525.762,2.456,2.665,2.456H686.4V339.3h-1.734Zm-5-6.092c0,3.174-2.244,6.814-5.715,6.814-2.709,0-4.021-1.694-4.021-3.427,0-3.937,5.586-4.105,8.676-4.105h1.06Z" transform="translate(-589.831 -312.928)" fill="#fff"/>
      <rect id="Rectangle_11" data-name="Rectangle 11" width="2.797" height="2.669" transform="translate(16.943 65.823)" fill="#fff"/>
      <path id="Path_6" data-name="Path 6" d="M496.067,484.727V473.892c0-1.449-.61-2.059-2.059-2.059h-5.883l-3.76,5.273a2.105,2.105,0,0,1-1.7.706h-1.449V467.266c0-1.449-.61-1.866-2.059-1.866H476.07v2.669h1.316a.628.628,0,0,1,.706.706V488.1h3.118v-7.653h1.22a1.743,1.743,0,0,1,1.609.674L487,486.585c.706,1.252,1.188,1.509,2.7,1.509h8.391v-2.669h-1.316a.629.629,0,0,1-.706-.706Zm-6.5.06-2.412-4.4c-.546-1.027-1.092-1.22-1.092-1.22V479.1a3.973,3.973,0,0,0,1.22-1.22l2.46-3.375h2.524a.629.629,0,0,1,.706.706v10.225H490.95c-.8,0-1.128-.128-1.381-.642Z" transform="translate(-476.07 -399.622)" fill="#fff"/>
      <path id="Path_7" data-name="Path 7" d="M534.421,484.735v-7.46h3.889v-2.508h-3.889V470.3h-3.054v4.466H529.18v2.508H531.3v7.813c0,5.434,4.146,6.076,6.2,6.076a7.946,7.946,0,0,0,1.091-.064v-2.765a3.745,3.745,0,0,1-.738.064C536.672,488.4,534.421,487.982,534.421,484.735Z" transform="translate(-507.91 -402.556)" fill="#fff"/>
      <path id="Path_8" data-name="Path 8" d="M560.925,494.744a5.806,5.806,0,0,1-.16-11.606c1.188,0,3.022.514,3.022,1.673v.9h2.829v-1.673c0-2.765-3.889-3.568-5.851-3.568a8.522,8.522,0,1,0-.064,17.039,8.957,8.957,0,0,0,6.622-2.8l-1.348-2.219A7.324,7.324,0,0,1,560.925,494.744Z" transform="translate(-521.607 -408.645)" fill="#fff"/>
      <path id="Path_9" data-name="Path 9" d="M604.1,484.739V477.7c0-4.146-1.738-6.236-5.562-6.236a6.623,6.623,0,0,0-6.044,3.632h-.064s.064-.578.064-1.348v-6.333c0-1.38-.61-1.995-2.059-1.995H587.35v2.669h1.32a.629.629,0,0,1,.706.706v19.323h3.118V480.5a6.627,6.627,0,0,1,.289-2.155,5.358,5.358,0,0,1,5.145-4.021c2.6,0,3.086,1.8,3.086,4.081v7.653c0,1.449.61,2.059,2.059,2.059h3.054v-2.669h-1.316a.629.629,0,0,1-.706-.706Z" transform="translate(-542.794 -399.634)" fill="#fff"/>
      <path id="Path_10" data-name="Path 10" d="M641.106,480.47c-4.631,0-8.167,3.343-8.167,8.52a8.293,8.293,0,0,0,8.648,8.52,9.52,9.52,0,0,0,6.268-2.38l-1.348-2.219a7.483,7.483,0,0,1-4.76,1.9,5.507,5.507,0,0,1-5.594-5.434h11.863s.1-.867.1-1.284C648.113,483.877,645.669,480.47,641.106,480.47Zm-4.824,6.622a4.685,4.685,0,0,1,4.792-4.145c2.027,0,3.728,1.449,3.824,4.145Z" transform="translate(-570.124 -408.645)" fill="#fff"/>
      <path id="Path_11" data-name="Path 11" d="M687.1,493.755v-7.039c0-4.146-1.738-6.236-5.594-6.236a6.624,6.624,0,0,0-6.108,3.728h-.064a6.838,6.838,0,0,0,.064-.931v-.61c0-1.188-.674-1.8-2.059-1.8h-2.99v2.669h1.316a.629.629,0,0,1,.706.706v12.894h3.118v-7.621a6.7,6.7,0,0,1,.289-2.187,5.269,5.269,0,0,1,5.145-3.985c2.508,0,3.054,1.8,3.054,4.081v7.653c0,1.449.61,2.059,2.059,2.059h3.086v-2.669H687.8a.629.629,0,0,1-.706-.706Z" transform="translate(-592.562 -408.651)" fill="#fff"/>
      <path id="Path_12" data-name="Path 12" d="M479.385,394.9V416h5.1V403.532a10.9,10.9,0,0,1,.474-3.58,8.625,8.625,0,0,1,8.423-6.525c4.109,0,5,2.945,5,6.686v12.525c0,2.368,1,3.367,3.367,3.367h5.052v-4.37h-2.159a1.028,1.028,0,0,1-1.156-1.156V398.949c0-6.79-2.841-10.209-9.158-10.209a10.838,10.838,0,0,0-10,6.1h-.1a11.335,11.335,0,0,0,.1-1.525v-1c0-1.946-1.1-2.946-3.367-2.946h-4.9v4.37h2.159a1.029,1.029,0,0,1,1.156,1.16Z" transform="translate(-476.07 -353.65)" fill="#fff"/>
      <path id="Path_13" data-name="Path 13" d="M575.545,401.223c0-6.894-4-12.473-11.473-12.473S550.7,394.224,550.7,402.7c0,7.894,5.739,13.949,14.158,13.949a15.6,15.6,0,0,0,10.266-3.893l-2.211-3.632a12.244,12.244,0,0,1-7.789,3.106,9.015,9.015,0,0,1-9.158-8.893h19.423s.161-1.421.161-2.107Zm-19.371-1.633c.791-4.422,3.949-6.79,7.841-6.79,3.315,0,6.108,2.368,6.264,6.79H556.174Z" transform="translate(-520.824 -353.657)" fill="#fff"/>
      <path id="Path_14" data-name="Path 14" d="M646.07,393.161,641.387,409a21.236,21.236,0,0,0-.63,2.841h-.1A28.512,28.512,0,0,0,639.97,409l-5.791-18.58H629.5L623.757,409c-.421,1.369-.738,2.841-.738,2.841h-.1a22.007,22.007,0,0,0-.63-2.841l-4.736-15.844c-.686-2.263-1.581-2.841-3.949-2.841h-3.21v4.37h.738c.843,0,1.368.213,1.633,1.051l7,21.213h5.791l5.474-17.108c.421-1.368.738-2.893.738-2.893h.1s.317,1.525.739,2.893l5.526,17.108h5.739l7-21.213c.265-.843.79-1.051,1.633-1.051h.738v-4.37h-3.158c-2.368,0-3.315.578-4,2.841Z" transform="translate(-556.664 -354.597)" fill="#fff"/>
    </g>
  </g>
</svg>
