<svg xmlns="http://www.w3.org/2000/svg" width="42.507" height="34" viewBox="0 0 42.507 34">
  <path id="hand-coins" d="M40.786,44.724a4.326,4.326,0,0,0-3.761-.749l-7.409,1.7a4.958,4.958,0,0,0-4.825-6.1H15.926a5.635,5.635,0,0,0-4.007,1.659L7.914,45.245H2.833A2.833,2.833,0,0,0,0,48.078v7.083a2.833,2.833,0,0,0,2.833,2.833H21.249a1.4,1.4,0,0,0,.344-.043l11.333-2.833a1.229,1.229,0,0,0,.211-.071l6.883-2.929.078-.035a4.356,4.356,0,0,0,.7-7.359ZM2.833,48.078h4.25v7.083H2.833Zm36.023,1.454L32.127,52.4,21.072,55.161H9.916V47.248l4.007-4.006a2.808,2.808,0,0,1,2-.83h8.865a2.125,2.125,0,0,1,0,4.25H19.833a1.417,1.417,0,1,0,0,2.833H25.5a1.473,1.473,0,0,0,.317-.035l11.864-2.729.055-.014a1.523,1.523,0,0,1,1.116,2.816ZM29.041,36.745a6.376,6.376,0,0,0,1.045-.085,6.375,6.375,0,1,0,5-8.323,6.375,6.375,0,1,0-6.042,8.408ZM39.666,34.62a3.542,3.542,0,1,1-3.542-3.542,3.542,3.542,0,0,1,3.542,3.542ZM29.041,26.829a3.542,3.542,0,0,1,3.409,2.587,6.375,6.375,0,0,0-2.656,4.415,3.616,3.616,0,0,1-.753.081,3.542,3.542,0,0,1,0-7.083Z" transform="translate(0 -23.995)" fill="#a6c739"/>
</svg>
