<svg xmlns="http://www.w3.org/2000/svg" width="50.008" height="40" viewBox="0 0 50.008 40">
  <path id="hand-coins" d="M47.984,48.383a5.089,5.089,0,0,0-4.425-.881l-8.716,2a5.833,5.833,0,0,0-5.677-7.177H18.737a6.629,6.629,0,0,0-4.714,1.952L9.31,49H3.333A3.333,3.333,0,0,0,0,52.328v8.333a3.333,3.333,0,0,0,3.333,3.333H25a1.652,1.652,0,0,0,.4-.05l13.333-3.333a1.445,1.445,0,0,0,.248-.083l8.1-3.446.092-.042a5.125,5.125,0,0,0,.819-8.658ZM3.333,52.328h5v8.333h-5Zm42.38,1.71L37.8,57.409,24.791,60.661H11.666v-9.31l4.714-4.712a3.3,3.3,0,0,1,2.356-.977H29.166a2.5,2.5,0,0,1,0,5H23.333a1.667,1.667,0,0,0,0,3.333H30a1.733,1.733,0,0,0,.373-.042l13.958-3.21.065-.017a1.792,1.792,0,0,1,1.312,3.312ZM34.166,39a7.5,7.5,0,0,0,1.229-.1A7.5,7.5,0,1,0,41.274,29.1,7.5,7.5,0,1,0,34.166,39Zm12.5-2.5A4.167,4.167,0,1,1,42.5,32.329,4.167,4.167,0,0,1,46.665,36.5Zm-12.5-9.166a4.167,4.167,0,0,1,4.01,3.044,7.5,7.5,0,0,0-3.125,5.194,4.255,4.255,0,0,1-.885.1,4.167,4.167,0,1,1,0-8.333Z" transform="translate(0 -23.995)" fill="#a6c739"/>
</svg>
