<svg xmlns="http://www.w3.org/2000/svg" xmlns:xlink="http://www.w3.org/1999/xlink" width="158.282" height="158.282" viewBox="0 0 158.282 158.282">
  <defs>
    <linearGradient id="linear-gradient" x1="0.756" y1="0.971" x2="0.265" y2="0.065" gradientUnits="objectBoundingBox">
      <stop offset="0" stop-color="#a6c739"/>
      <stop offset="0.5" stop-color="#dad500"/>
      <stop offset="1" stop-color="#ed76aa"/>
    </linearGradient>
  </defs>
  <g id="Group_45" data-name="Group 45" transform="translate(-355.932 -16.006)">
    <path id="Rectangle_21" data-name="Rectangle 21" d="M0,0H140.282a18,18,0,0,1,18,18V158.282a0,0,0,0,1,0,0H18a18,18,0,0,1-18-18V0A0,0,0,0,1,0,0Z" transform="translate(355.932 16.006)" fill="#fff"/>
    <g id="Logo_Like_A_New_Kitchen_RGB" data-name="Logo Like A New Kitchen RGB" transform="translate(363.932 24.006)">
      <path id="Path_1" data-name="Path 1" d="M456.84,399.361V271.26H585.485s13.636,0,13.636,13.926V413.542H470.766s-13.926.005-13.926-14.181Z" transform="translate(-456.84 -271.26)" fill="url(#linear-gradient)"/>
      <g id="Group_1" data-name="Group 1" transform="translate(9.804 15.187)">
        <path id="Path_2" data-name="Path 2" d="M479.562,306.867v28.707c0,2.422,1.02,3.441,3.441,3.441h16.237c2.422,0,3.441-1.02,3.441-3.441v-4.787h-4.894v2.422a1.074,1.074,0,0,1-1.183,1.183H486.123a1.076,1.076,0,0,1-1.183-1.183V304.5c0-2.422-1.02-3.441-3.441-3.441h-5.43v4.624h2.31A1.052,1.052,0,0,1,479.562,306.867Z" transform="translate(-476.07 -301.055)" fill="#fff"/>
        <rect id="Rectangle_10" data-name="Rectangle 10" width="4.68" height="4.461" transform="translate(28.225 0.005)" fill="#fff"/>
        <path id="Path_3" data-name="Path 3" d="M528.06,317.456v18.119c0,2.422,1.02,3.441,3.441,3.441h12.256v-12.8H545.8a2.9,2.9,0,0,1,2.687,1.127l4.945,9.141c1.183,2.1,1.988,2.529,4.517,2.529h3.762v-4.461h-1.667c-1.346,0-1.881-.214-2.31-1.076l-4.032-7.367c-.913-1.723-1.825-2.044-1.825-2.044v-.107a6.69,6.69,0,0,0,2.044-2.044l7.367-10.109h-5.97l-6.291,8.815a3.529,3.529,0,0,1-2.85,1.183h-2.422V304.17c0-2.422-1.02-3.12-3.441-3.12h-5.159v4.461h2.2a1.052,1.052,0,0,1,1.183,1.183v27.851H534.4a1.052,1.052,0,0,1-1.183-1.183V315.243c0-2.422-1.02-3.441-3.441-3.441H524.67v4.461h2.208a1.052,1.052,0,0,1,1.183,1.183Z" transform="translate(-499.958 -301.05)" fill="#fff"/>
        <path id="Path_4" data-name="Path 4" d="M608.533,349.383a15.923,15.923,0,0,0,10.482-3.977l-2.258-3.711a12.507,12.507,0,0,1-7.958,3.171,9.2,9.2,0,0,1-9.355-9.085h19.842s.163-1.453.163-2.151c0-7.04-4.083-12.74-11.721-12.74s-13.658,5.593-13.658,14.249c0,8.065,5.863,14.249,14.463,14.249Zm-.857-24.353c3.385,0,6.235,2.422,6.4,6.933H599.668C600.473,327.446,603.7,325.03,607.677,325.03Z" transform="translate(-534.051 -310.775)" fill="#fff"/>
        <path id="Path_5" data-name="Path 5" d="M689.766,344.275a1.052,1.052,0,0,1-1.183-1.183V331.535c0-6.021-2.366-10.645-11.18-10.645-2.636,0-9.411.647-9.411,5.108v2.687h4.894v-1.56c0-1.774,3.171-2.1,4.461-2.1,4.247,0,6.021,1.718,6.021,6.505v.27h-1.183c-4.568,0-16.4.535-16.4,9.3,0,5.429,4.568,8.279,9.248,8.279A9.3,9.3,0,0,0,683.694,344h.107a11.793,11.793,0,0,0-.107,1.611c0,1.937.969,3.12,3.385,3.12h4.894v-4.461h-2.2Zm-6.347-7.739c0,4.033-2.85,8.657-7.26,8.657-3.441,0-5.108-2.151-5.108-4.354,0-5,7.1-5.215,11.022-5.215h1.346Z" transform="translate(-569.294 -310.775)" fill="#fff"/>
        <rect id="Rectangle_11" data-name="Rectangle 11" width="3.553" height="3.39" transform="translate(21.524 83.62)" fill="#fff"/>
        <path id="Path_6" data-name="Path 6" d="M501.474,489.952V476.187c0-1.84-.775-2.615-2.615-2.615h-7.474l-4.777,6.7a2.674,2.674,0,0,1-2.162.9h-1.84v-13.4c0-1.84-.775-2.371-2.615-2.371h-3.92v3.39h1.672a.8.8,0,0,1,.9.9v24.547H482.6v-9.722h1.55a2.215,2.215,0,0,1,2.044.857l3.757,6.944c.9,1.591,1.509,1.917,3.431,1.917h10.66v-3.39h-1.672a.8.8,0,0,1-.9-.9Zm-8.254.077-3.064-5.593c-.693-1.305-1.387-1.55-1.387-1.55V482.8a5.047,5.047,0,0,0,1.55-1.55l3.125-4.287h3.207a.8.8,0,0,1,.9.9v12.99h-2.575c-1.02,0-1.433-.163-1.754-.816Z" transform="translate(-476.07 -381.838)" fill="#fff"/>
        <path id="Path_7" data-name="Path 7" d="M535.838,488.638V479.16h4.94v-3.186h-4.94V470.3h-3.88v5.674H529.18v3.186h2.7v9.926c0,6.9,5.266,7.718,7.882,7.718a10.093,10.093,0,0,0,1.387-.081v-3.513a4.756,4.756,0,0,1-.938.082C538.7,493.292,535.838,492.762,535.838,488.638Z" transform="translate(-502.159 -384.24)" fill="#fff"/>
        <path id="Path_8" data-name="Path 8" d="M563.333,498.6a7.03,7.03,0,0,1-7.27-7.352c0-4.369,3.023-7.392,7.066-7.392,1.509,0,3.839.653,3.839,2.126v1.142h3.594V485c0-3.513-4.94-4.532-7.433-4.532-6.658,0-11.109,4.736-11.109,10.823a10.614,10.614,0,0,0,11.027,10.823,11.378,11.378,0,0,0,8.412-3.553l-1.713-2.819A9.3,9.3,0,0,1,563.333,498.6Z" transform="translate(-513.384 -389.225)" fill="#fff"/>
        <path id="Path_9" data-name="Path 9" d="M608.629,489.962V481.02c0-5.266-2.207-7.922-7.066-7.922a8.414,8.414,0,0,0-7.678,4.614H593.8s.082-.734.082-1.713v-8.045c0-1.754-.775-2.534-2.615-2.534h-3.92v3.39h1.677a.8.8,0,0,1,.9.9v24.547h3.961v-9.681a8.417,8.417,0,0,1,.367-2.738,6.806,6.806,0,0,1,6.536-5.108c3.309,0,3.921,2.289,3.921,5.185v9.722c0,1.84.775,2.615,2.615,2.615h3.88v-3.39h-1.672a.8.8,0,0,1-.9-.9Z" transform="translate(-530.747 -381.848)" fill="#fff"/>
        <path id="Path_10" data-name="Path 10" d="M643.314,480.47c-5.883,0-10.374,4.247-10.374,10.823a10.536,10.536,0,0,0,10.986,10.823,12.094,12.094,0,0,0,7.963-3.023l-1.713-2.819a9.506,9.506,0,0,1-6.046,2.411,7,7,0,0,1-7.107-6.9h15.07s.122-1.1.122-1.631C652.216,484.8,649.111,480.47,643.314,480.47Zm-6.128,8.412a5.952,5.952,0,0,1,6.087-5.266c2.574,0,4.736,1.84,4.858,5.266Z" transform="translate(-553.14 -389.225)" fill="#fff"/>
        <path id="Path_11" data-name="Path 11" d="M691.63,497.345V488.4c0-5.266-2.208-7.923-7.107-7.923a8.415,8.415,0,0,0-7.759,4.736h-.082a8.682,8.682,0,0,0,.082-1.183v-.775c0-1.509-.857-2.289-2.615-2.289h-3.8v3.39h1.672a.8.8,0,0,1,.9.9v16.38h3.961v-9.681a8.513,8.513,0,0,1,.367-2.779,6.694,6.694,0,0,1,6.536-5.062c3.186,0,3.88,2.289,3.88,5.185v9.722c0,1.84.775,2.615,2.615,2.615h3.92v-3.39h-1.677a.8.8,0,0,1-.9-.9Z" transform="translate(-571.53 -389.23)" fill="#fff"/>
        <path id="Path_12" data-name="Path 12" d="M480.281,396.565v26.811h6.485V407.531a13.847,13.847,0,0,1,.6-4.547,10.958,10.958,0,0,1,10.7-8.29c5.22,0,6.352,3.742,6.352,8.493V419.1c0,3.008,1.269,4.277,4.277,4.277h6.418v-5.552h-2.743a1.306,1.306,0,0,1-1.468-1.468V401.709c0-8.626-3.61-12.97-11.634-12.97a13.769,13.769,0,0,0-12.7,7.754h-.132a14.4,14.4,0,0,0,.132-1.937v-1.269c0-2.473-1.4-3.742-4.277-3.742h-6.22V395.1h2.743a1.307,1.307,0,0,1,1.468,1.473Z" transform="translate(-476.07 -344.163)" fill="#fff"/>
        <path id="Path_13" data-name="Path 13" d="M582.262,404.595c0-8.758-5.083-15.845-14.575-15.845S550.7,395.7,550.7,406.471c0,10.028,7.29,17.721,17.986,17.721a19.813,19.813,0,0,0,13.041-4.945l-2.809-4.614a15.554,15.554,0,0,1-9.9,3.946,11.452,11.452,0,0,1-11.634-11.3h24.675s.2-1.8.2-2.677Zm-24.608-2.075c1-5.618,5.017-8.626,9.962-8.626,4.211,0,7.759,3.008,7.958,8.626h-17.92Z" transform="translate(-512.747 -344.169)" fill="#fff"/>
        <path id="Path_14" data-name="Path 14" d="M655.717,393.929l-5.949,20.127a26.973,26.973,0,0,0-.8,3.609h-.133a36.23,36.23,0,0,0-.867-3.609l-7.356-23.6h-5.95l-7.29,23.6c-.535,1.739-.938,3.609-.938,3.609H626.3a27.956,27.956,0,0,0-.8-3.609l-6.016-20.127c-.872-2.875-2.009-3.609-5.017-3.609H610.39v5.552h.938c1.071,0,1.738.27,2.075,1.336l8.891,26.948h7.356l6.954-21.733c.535-1.738.938-3.676.938-3.676h.133s.4,1.937.938,3.676l7.02,21.733h7.29l8.891-26.948c.336-1.071,1-1.336,2.075-1.336h.938V390.32h-4.012c-3.008,0-4.211.734-5.083,3.609Z" transform="translate(-542.137 -344.938)" fill="#fff"/>
      </g>
    </g>
  </g>
</svg>
