<svg xmlns="http://www.w3.org/2000/svg" width="27.692" height="40" viewBox="0 0 27.692 40">
  <path id="hourglass-medium" d="M83.692,33.931V27.077A3.077,3.077,0,0,0,80.615,24H59.077A3.077,3.077,0,0,0,56,27.077V34a3.09,3.09,0,0,0,1.231,2.462L67.283,44,57.231,51.538A3.09,3.09,0,0,0,56,54v6.923A3.077,3.077,0,0,0,59.077,64H80.615a3.077,3.077,0,0,0,3.077-3.077V54.069a3.094,3.094,0,0,0-1.221-2.456L72.4,44l10.073-7.615A3.087,3.087,0,0,0,83.692,33.931ZM59.077,27.077H80.615v6.854l-1.11.838H60.1L59.077,34Zm10.769,15-5.64-4.231H75.437ZM80.615,60.923H59.077V54l9.231-6.923v4.615a1.538,1.538,0,0,0,3.077,0v-4.6l9.231,6.977Z" transform="translate(-56 -24)" fill="#a6c739"/>
</svg>
