<svg id="instagram-logo" xmlns="http://www.w3.org/2000/svg" width="24" height="24" viewBox="0 0 24 24">
  <path id="instagram-logo-2" data-name="instagram-logo" d="M36,30.462A5.538,5.538,0,1,0,41.538,36,5.538,5.538,0,0,0,36,30.462Zm0,9.231A3.692,3.692,0,1,1,39.692,36,3.692,3.692,0,0,1,36,39.692ZM41.538,24H30.462A6.468,6.468,0,0,0,24,30.462V41.538A6.468,6.468,0,0,0,30.462,48H41.538A6.468,6.468,0,0,0,48,41.538V30.462A6.468,6.468,0,0,0,41.538,24Zm4.615,17.538a4.615,4.615,0,0,1-4.615,4.615H30.462a4.615,4.615,0,0,1-4.615-4.615V30.462a4.615,4.615,0,0,1,4.615-4.615H41.538a4.615,4.615,0,0,1,4.615,4.615ZM43.385,30A1.385,1.385,0,1,1,42,28.615,1.385,1.385,0,0,1,43.385,30Z" transform="translate(-24 -24)" fill="#c32aa3"/>
</svg>
