<svg xmlns="http://www.w3.org/2000/svg" width="18" height="18" viewBox="0 0 18 18">
  <path id="instagram-logo_1_" data-name="instagram-logo (1)" d="M33,28.846A4.154,4.154,0,1,0,37.154,33,4.154,4.154,0,0,0,33,28.846Zm0,6.923A2.769,2.769,0,1,1,35.769,33,2.769,2.769,0,0,1,33,35.769ZM37.154,24H28.846A4.851,4.851,0,0,0,24,28.846v8.308A4.851,4.851,0,0,0,28.846,42h8.308A4.851,4.851,0,0,0,42,37.154V28.846A4.851,4.851,0,0,0,37.154,24Zm3.462,13.154a3.462,3.462,0,0,1-3.462,3.462H28.846a3.462,3.462,0,0,1-3.462-3.462V28.846a3.462,3.462,0,0,1,3.462-3.462h8.308a3.462,3.462,0,0,1,3.462,3.462ZM38.538,28.5A1.038,1.038,0,1,1,37.5,27.462,1.038,1.038,0,0,1,38.538,28.5Z" transform="translate(-24 -24)" fill="#fff"/>
</svg>
