<svg id="layout" xmlns="http://www.w3.org/2000/svg" xmlns:xlink="http://www.w3.org/1999/xlink" width="20" height="14.809" viewBox="0 0 20 14.809">
  <defs>
    <linearGradient id="linear-gradient" x1="0.001" y1="0.5" x2="1.001" y2="0.5" gradientUnits="objectBoundingBox">
      <stop offset="0" stop-color="#e4007c"/>
      <stop offset="1" stop-color="#e21e20"/>
    </linearGradient>
  </defs>
  <path id="Path_19" data-name="Path 19" d="M328.115,1a5.4,5.4,0,0,1,3.4,1.05A3.88,3.88,0,0,1,333,4.928h-2.62a1.912,1.912,0,0,0-.748-1.352,2.629,2.629,0,0,0-1.518-.551Zm4.415,8.343a3.893,3.893,0,0,0-1.539-1.216,18.335,18.335,0,0,0-2.337-.791,15.965,15.965,0,0,1-1.706-.542,2.875,2.875,0,0,1-1.028-.674,1.512,1.512,0,0,1-.406-1.09c0-.037,0-.068,0-.1h-2.411c0,.062-.006.123-.006.188a3.448,3.448,0,0,0,.625,2.161,3.776,3.776,0,0,0,1.505,1.195,16.545,16.545,0,0,0,2.3.757,15.845,15.845,0,0,1,1.755.542,2.85,2.85,0,0,1,1.059.708,1.67,1.67,0,0,1,.425,1.185,1.917,1.917,0,0,1-.687,1.527,2.842,2.842,0,0,1-1.912.591c-.022,0-.04,0-.062,0v2h.062a5.69,5.69,0,0,0,2.669-.591,4.257,4.257,0,0,0,1.724-1.57,3.956,3.956,0,0,0,.591-2.078A3.431,3.431,0,0,0,332.53,9.343Z" transform="translate(-313.153 -0.969)" fill="url(#linear-gradient)"/>
  <path id="Path_20" data-name="Path 20" d="M4.794,7.414,11.228,0H8.183L2.429,6.755V0H0V10.215H2.429V8.183l5.733,6.625h3.174Z" fill="#fff"/>
</svg>
