<svg id="layout" xmlns="http://www.w3.org/2000/svg" xmlns:xlink="http://www.w3.org/1999/xlink" width="108.334" height="39.982" viewBox="0 0 108.334 39.982">
  <defs>
    <linearGradient id="linear-gradient" x1="0.001" y1="0.5" x2="1.001" y2="0.5" gradientUnits="objectBoundingBox">
      <stop offset="0" stop-color="#e4007c"/>
      <stop offset="1" stop-color="#e21e20"/>
    </linearGradient>
  </defs>
  <g id="Group_71" data-name="Group 71" transform="translate(61.153 10.756)">
    <g id="Group_68" data-name="Group 68" transform="translate(0.008)">
      <path id="Path_31" data-name="Path 31" d="M737.9,134.346l-.9.848v1.363H735.8V129.4h1.205v4.322l2.5-2.319h1.446l-2.153,2.161,2.352,2.992H739.69Z" transform="translate(-735.8 -129.4)" fill="#fff"/>
      <path id="Path_32" data-name="Path 32" d="M807.245,155.817h-4.04a1.558,1.558,0,0,0,1.671,1.239,1.84,1.84,0,0,0,1.4-.557l.648.74a2.893,2.893,0,0,1-4.921-1.8,2.561,2.561,0,0,1,2.66-2.635,2.512,2.512,0,0,1,2.6,2.66C807.262,155.56,807.253,155.7,807.245,155.817Zm-4.057-.8h2.926a1.406,1.406,0,0,0-1.454-1.255A1.427,1.427,0,0,0,803.189,155.019Z" transform="translate(-796.497 -150.855)" fill="#fff"/>
      <path id="Path_33" data-name="Path 33" d="M883.729,153.5v5.154h-1.147V158a2.1,2.1,0,0,1-1.662.723,2.038,2.038,0,0,1-2.219-2.277V153.5h1.205v2.776c0,.939.441,1.38,1.206,1.38a1.356,1.356,0,0,0,1.4-1.554v-2.6Z" transform="translate(-866.822 -151.497)" fill="#fff"/>
      <path id="Path_34" data-name="Path 34" d="M960.4,134.346l-.9.848v1.363H958.3V129.4h1.205v4.322l2.5-2.319h1.446l-2.153,2.161,2.352,2.992h-1.471Z" transform="translate(-939.805 -129.4)" fill="#fff"/>
      <path id="Path_35" data-name="Path 35" d="M1029.745,155.817h-4.04a1.558,1.558,0,0,0,1.671,1.239,1.841,1.841,0,0,0,1.4-.557l.648.74a2.893,2.893,0,0,1-4.921-1.8,2.561,2.561,0,0,1,2.66-2.635,2.512,2.512,0,0,1,2.6,2.66C1029.762,155.56,1029.754,155.7,1029.745,155.817Zm-4.057-.8h2.926a1.407,1.407,0,0,0-1.455-1.255A1.427,1.427,0,0,0,1025.688,155.019Z" transform="translate(-1000.503 -150.855)" fill="#fff"/>
      <path id="Path_36" data-name="Path 36" d="M1106.87,154.869v2.951h-1.205v-2.8c0-.914-.457-1.363-1.222-1.363a1.371,1.371,0,0,0-1.438,1.554v2.6H1101.8v-5.154h1.147v.665a2.243,2.243,0,0,1,1.778-.723A2.027,2.027,0,0,1,1106.87,154.869Z" transform="translate(-1071.377 -150.672)" fill="#fff"/>
    </g>
    <g id="Group_69" data-name="Group 69" transform="translate(0.008 10.507)">
      <path id="Path_37" data-name="Path 37" d="M735.8,273.688l.465-.914a3.477,3.477,0,0,0,1.8.515c.765,0,1.081-.216,1.081-.565,0-.981-3.184-.058-3.184-2.111,0-.972.881-1.612,2.269-1.612a4.18,4.18,0,0,1,1.928.44l-.465.914a2.794,2.794,0,0,0-1.48-.382c-.731,0-1.081.241-1.081.582,0,1.039,3.184.116,3.184,2.136,0,.964-.889,1.6-2.336,1.6A4.343,4.343,0,0,1,735.8,273.688Z" transform="translate(-735.8 -267.903)" fill="#fff"/>
      <path id="Path_38" data-name="Path 38" d="M808.07,271.435a2.507,2.507,0,0,1-2.618,2.643,2.1,2.1,0,0,1-1.646-.7v2.5H802.6v-7.024h1.147v.673a2.131,2.131,0,0,1,1.7-.731A2.509,2.509,0,0,1,808.07,271.435Zm-1.222,0a1.532,1.532,0,1,0-1.521,1.613A1.5,1.5,0,0,0,806.848,271.435Z" transform="translate(-797.047 -267.719)" fill="#fff"/>
      <path id="Path_39" data-name="Path 39" d="M882.445,271.917h-4.04a1.557,1.557,0,0,0,1.671,1.239,1.841,1.841,0,0,0,1.4-.557l.648.74a2.893,2.893,0,0,1-4.921-1.8,2.561,2.561,0,0,1,2.66-2.635,2.512,2.512,0,0,1,2.6,2.66C882.462,271.651,882.453,271.8,882.445,271.917Zm-4.056-.806h2.926a1.406,1.406,0,0,0-1.455-1.255A1.434,1.434,0,0,0,878.388,271.111Z" transform="translate(-865.446 -267.811)" fill="#fff"/>
      <path id="Path_40" data-name="Path 40" d="M949.3,271.435a2.6,2.6,0,0,1,2.785-2.635,2.325,2.325,0,0,1,2.2,1.2l-.923.54a1.461,1.461,0,0,0-1.28-.715,1.613,1.613,0,0,0,0,3.225,1.451,1.451,0,0,0,1.28-.715l.923.54a2.345,2.345,0,0,1-2.2,1.205A2.615,2.615,0,0,1,949.3,271.435Z" transform="translate(-931.553 -267.719)" fill="#fff"/>
      <path id="Path_41" data-name="Path 41" d="M1018.182,261.81a1.888,1.888,0,0,1-1.155.349,1.585,1.585,0,0,1-1.779-1.737v-2.477h-.848v-.964h.848V255.8h1.205v1.18h1.38v.964h-1.38V260.4c0,.5.249.773.715.773a1.054,1.054,0,0,0,.673-.216Z" transform="translate(-991.242 -255.8)" fill="#fff"/>
      <path id="Path_42" data-name="Path 42" d="M1074.884,268.8v1.147a1.771,1.771,0,0,0-.283-.025,1.407,1.407,0,0,0-1.5,1.6v2.5H1071.9v-5.154h1.147v.756A2.018,2.018,0,0,1,1074.884,268.8Z" transform="translate(-1043.962 -267.719)" fill="#fff"/>
      <path id="Path_43" data-name="Path 43" d="M1125.129,269.5v5.154h-1.147V274a2.1,2.1,0,0,1-1.662.723,2.038,2.038,0,0,1-2.219-2.278V269.5h1.205v2.785c0,.939.44,1.38,1.205,1.38.839,0,1.4-.524,1.4-1.554v-2.6h1.214Z" transform="translate(-1088.156 -268.361)" fill="#fff"/>
      <path id="Path_44" data-name="Path 44" d="M1208.4,271.061v2.951H1207.2v-2.8c0-.914-.424-1.363-1.155-1.363-.79,0-1.338.524-1.338,1.546v2.618H1203.5v-2.8c0-.914-.424-1.363-1.155-1.363-.8,0-1.338.524-1.338,1.546v2.618H1199.8v-5.154h1.147v.657a2.116,2.116,0,0,1,1.687-.715,1.937,1.937,0,0,1,1.737.856,2.394,2.394,0,0,1,1.929-.856A1.98,1.98,0,0,1,1208.4,271.061Z" transform="translate(-1161.231 -267.719)" fill="#fff"/>
    </g>
    <g id="Group_70" data-name="Group 70" transform="translate(0 21.363)">
      <path id="Path_45" data-name="Path 45" d="M740.787,386.541v4.5a2.146,2.146,0,0,1-2.444,2.452,3.333,3.333,0,0,1-2.3-.8l.258-.366a2.96,2.96,0,0,0,2.036.731,1.713,1.713,0,0,0,1.97-1.962v-.848a2.331,2.331,0,0,1-2.095,1.147,2.449,2.449,0,1,1,0-4.9,2.309,2.309,0,0,1,2.111,1.18v-1.139Zm-.474,2.4a2.058,2.058,0,1,0-2.062,2.02A1.949,1.949,0,0,0,740.313,388.944Z" transform="translate(-735.7 -386.492)" fill="#fff"/>
      <path id="Path_46" data-name="Path 46" d="M823.886,386.5v.474c-.042,0-.075-.008-.116-.008a1.737,1.737,0,0,0-1.787,1.987v2.627H821.5v-5.037h.466v1.1A1.912,1.912,0,0,1,823.886,386.5Z" transform="translate(-814.368 -386.492)" fill="#fff"/>
      <path id="Path_47" data-name="Path 47" d="M859,389.06a2.519,2.519,0,1,1,2.519,2.56A2.457,2.457,0,0,1,859,389.06Zm4.547,0a2.03,2.03,0,1,0-2.028,2.12A1.994,1.994,0,0,0,863.547,389.06Z" transform="translate(-848.751 -386.492)" fill="#fff"/>
      <path id="Path_48" data-name="Path 48" d="M935.9,389.085h-4.331a2.158,2.158,0,0,0,3.749,1.3l.283.316a2.411,2.411,0,0,1-1.9.823,2.475,2.475,0,0,1-2.593-2.56,2.409,2.409,0,0,1,2.411-2.56,2.382,2.382,0,0,1,2.4,2.535A.916.916,0,0,0,935.9,389.085Zm-4.322-.374h3.857a1.929,1.929,0,0,0-3.857,0Z" transform="translate(-914.858 -386.4)" fill="#fff"/>
      <path id="Path_49" data-name="Path 49" d="M1012.012,389.151a2.44,2.44,0,0,1-2.485,2.56,2.248,2.248,0,0,1-2.045-1.189v3.017H1007v-6.908h.466v1.189a2.245,2.245,0,0,1,2.061-1.222A2.433,2.433,0,0,1,1012.012,389.151Zm-.49,0a2.034,2.034,0,1,0-2.037,2.12A2.005,2.005,0,0,0,1011.522,389.151Z" transform="translate(-984.449 -386.583)" fill="#fff"/>
    </g>
  </g>
  <path id="Path_50" data-name="Path 50" d="M336.641,1a14.575,14.575,0,0,1,9.177,2.834,10.476,10.476,0,0,1,4.015,7.772h-7.074a5.163,5.163,0,0,0-2.02-3.649,7.1,7.1,0,0,0-4.1-1.488V1Zm11.92,22.526a10.511,10.511,0,0,0-4.156-3.283,49.5,49.5,0,0,0-6.309-2.136,43.111,43.111,0,0,1-4.605-1.463,7.761,7.761,0,0,1-2.776-1.82,4.083,4.083,0,0,1-1.1-2.943c0-.1.008-.183.008-.283h-6.509c-.008.166-.017.332-.017.507a9.308,9.308,0,0,0,1.687,5.835,10.194,10.194,0,0,0,4.065,3.225,44.67,44.67,0,0,0,6.2,2.045,42.783,42.783,0,0,1,4.738,1.463,7.7,7.7,0,0,1,2.859,1.912,4.509,4.509,0,0,1,1.147,3.2,5.176,5.176,0,0,1-1.854,4.123,7.672,7.672,0,0,1-5.162,1.6c-.058,0-.108-.008-.166-.008v5.4h.166a15.361,15.361,0,0,0,7.207-1.6,11.493,11.493,0,0,0,4.655-4.239,10.679,10.679,0,0,0,1.6-5.611A9.263,9.263,0,0,0,348.561,23.526Z" transform="translate(-296.243 -0.917)" fill="url(#linear-gradient)"/>
  <path id="Path_51" data-name="Path 51" d="M12.942,20.016,30.315,0H22.094L6.558,18.237V0H0V27.58H6.558V22.094L22.036,39.982h8.57Z" fill="#fff"/>
</svg>
