<svg xmlns="http://www.w3.org/2000/svg" width="33.999" height="34" viewBox="0 0 33.999 34">
  <path id="leaf" d="M65.9,33.428A1.417,1.417,0,0,0,64.565,32.1c-13.48-.791-24.278,3.267-28.882,10.881a15.421,15.421,0,0,0-2.259,8.676,19.2,19.2,0,0,0,2.442,8.473l-3.455,3.453a1.417,1.417,0,1,0,2,2l3.453-3.455a19.219,19.219,0,0,0,8.471,2.44q.3.011.59.011a15.393,15.393,0,0,0,8.087-2.27C62.629,57.706,66.689,46.91,65.9,33.428ZM53.554,59.887c-4.028,2.44-8.8,2.479-13.583.136L55.665,44.332a1.417,1.417,0,0,0-2-2l-15.692,15.7c-2.336-4.781-2.3-9.562.136-13.583,3.911-6.458,13.209-9.994,25.022-9.572C63.55,46.676,60.012,55.976,53.554,59.887Z" transform="translate(-31.996 -31.999)" fill="#a6c739"/>
</svg>
