<svg id="linkedin-logo" xmlns="http://www.w3.org/2000/svg" width="24" height="24" viewBox="0 0 24 24">
  <path id="linkedin-logo-2" data-name="linkedin-logo" d="M46.154,24H25.846A1.846,1.846,0,0,0,24,25.846V46.154A1.846,1.846,0,0,0,25.846,48H46.154A1.846,1.846,0,0,0,48,46.154V25.846A1.846,1.846,0,0,0,46.154,24Zm0,22.154H25.846V25.846H46.154Zm-13.846-12v7.385a.923.923,0,1,1-1.846,0V34.154a.923.923,0,1,1,1.846,0Zm10.154,3.231v4.154a.923.923,0,1,1-1.846,0V37.385a2.308,2.308,0,0,0-4.615,0v4.154a.923.923,0,1,1-1.846,0V34.154a.923.923,0,0,1,1.822-.205,4.154,4.154,0,0,1,6.486,3.436Zm-9.692-6.462a1.385,1.385,0,1,1-1.385-1.385A1.385,1.385,0,0,1,32.769,30.923Z" transform="translate(-24 -24)" fill="#0a66c2"/>
</svg>
