<svg xmlns="http://www.w3.org/2000/svg" width="28" height="38.191" viewBox="0 0 28 38.191">
  <path id="medal" d="M67.995,21.948A14,14,0,1,0,45.086,32.739V44.857A1.273,1.273,0,0,0,46.929,46L54,42.471,61.063,46A1.286,1.286,0,0,0,62.9,44.857V32.739A13.976,13.976,0,0,0,67.995,21.948Zm-25.454,0A11.454,11.454,0,1,1,54,33.4,11.454,11.454,0,0,1,42.541,21.948ZM60.359,42.8l-5.8-2.9a1.273,1.273,0,0,0-1.139,0l-5.792,2.9V34.416a13.982,13.982,0,0,0,12.727,0ZM54,30.857a8.909,8.909,0,1,0-8.909-8.909A8.909,8.909,0,0,0,54,30.857Zm0-15.272a6.363,6.363,0,1,1-6.363,6.363A6.363,6.363,0,0,1,54,15.585Z" transform="translate(-39.995 -7.939)" fill="#a6c739"/>
</svg>
