<svg xmlns="http://www.w3.org/2000/svg" width="35.362" height="34" viewBox="0 0 35.362 34">
  <path id="palette" d="M54.052,29.081A17.557,17.557,0,0,0,41.681,24H41.5A17.681,17.681,0,0,0,24,41.681c0,7.31,4.519,13.441,11.792,16.01a5.44,5.44,0,0,0,7.249-5.129,2.72,2.72,0,0,1,2.72-2.72h7.856a5.408,5.408,0,0,0,5.3-4.23,17.754,17.754,0,0,0,.44-4.08A17.558,17.558,0,0,0,54.052,29.081Zm2.21,15.931a2.7,2.7,0,0,1-2.645,2.108H45.761a5.44,5.44,0,0,0-5.44,5.44A2.72,2.72,0,0,1,36.7,55.123C30.544,52.952,26.72,47.8,26.72,41.681A14.961,14.961,0,0,1,41.527,26.72h.152a14.978,14.978,0,0,1,14.59,18.293ZM43.721,32.84a2.04,2.04,0,1,1-2.04-2.04A2.04,2.04,0,0,1,43.721,32.84Zm-7.48,4.08a2.04,2.04,0,1,1-2.04-2.04A2.04,2.04,0,0,1,36.241,36.921Zm0,9.52A2.04,2.04,0,1,1,34.2,44.4,2.04,2.04,0,0,1,36.241,46.441ZM51.2,36.921a2.04,2.04,0,1,1-2.04-2.04A2.04,2.04,0,0,1,51.2,36.921Z" transform="translate(-24 -24)" fill="#a6c739"/>
</svg>
