<svg xmlns="http://www.w3.org/2000/svg" width="16" height="16" viewBox="0 0 16 16">
  <path id="phone" d="M47.23,34.758l-3.769-1.689-.01,0a1.28,1.28,0,0,0-1.214.112.65.65,0,0,0-.06.045l-1.947,1.66A7.369,7.369,0,0,1,37.123,31.8l1.662-1.977c.016-.02.031-.04.046-.062a1.28,1.28,0,0,0,.106-1.2v-.01l-1.694-3.775a1.28,1.28,0,0,0-1.33-.762A4.5,4.5,0,0,0,32,28.481,11.533,11.533,0,0,0,43.52,40a4.5,4.5,0,0,0,4.47-3.914A1.28,1.28,0,0,0,47.23,34.758Zm-3.71,3.963a10.251,10.251,0,0,1-10.24-10.24,3.216,3.216,0,0,1,2.79-3.2.049.049,0,0,0,0,.01l1.68,3.76L36.1,31.03a.49.49,0,0,0-.046.062,1.28,1.28,0,0,0-.08,1.256,8.641,8.641,0,0,0,3.717,3.689,1.28,1.28,0,0,0,1.26-.091.674.674,0,0,0,.059-.045l1.945-1.659,3.76,1.684h.009A3.217,3.217,0,0,1,43.52,38.721Z" transform="translate(-32 -24.001)" fill="#808099"/>
</svg>
