<svg xmlns="http://www.w3.org/2000/svg" width="36" height="26.308" viewBox="0 0 36 26.308">
  <path id="quotes" d="M37.154,56H26.769A2.769,2.769,0,0,0,24,58.769V69.846a2.769,2.769,0,0,0,2.769,2.769H37.154V74a5.538,5.538,0,0,1-5.538,5.538,1.385,1.385,0,0,0,0,2.769A8.316,8.316,0,0,0,39.923,74V58.769A2.769,2.769,0,0,0,37.154,56Zm0,13.846H26.769V58.769H37.154ZM57.231,56H46.846a2.769,2.769,0,0,0-2.769,2.769V69.846a2.769,2.769,0,0,0,2.769,2.769H57.231V74a5.538,5.538,0,0,1-5.538,5.538,1.385,1.385,0,0,0,0,2.769A8.316,8.316,0,0,0,60,74V58.769A2.769,2.769,0,0,0,57.231,56Zm0,13.846H46.846V58.769H57.231Z" transform="translate(-24 -56)" fill="#808099"/>
</svg>
