<svg xmlns="http://www.w3.org/2000/svg" width="16" height="15.72" viewBox="0 0 16 15.72">
  <g id="Group_40" data-name="Group 40" transform="translate(-40 -44)">
    <path id="bxs-star" d="M17.958,7.643a.8.8,0,0,0-.694-.531L12.7,6.755,10.729,2.463a.805.805,0,0,0-1.458,0L7.3,6.755l-4.561.356a.8.8,0,0,0-.689.516.777.777,0,0,0,.194.83l3.371,3.228L4.42,16.757a.779.779,0,0,0,.325.823.812.812,0,0,0,.9.008L10,14.735l4.356,2.853a.814.814,0,0,0,.916-.019.78.78,0,0,0,.3-.85l-1.463-5.03L17.736,8.48A.778.778,0,0,0,17.958,7.643Z" transform="translate(38 42)" fill="#ed76aa"/>
  </g>
</svg>
