<svg xmlns="http://www.w3.org/2000/svg" xmlns:xlink="http://www.w3.org/1999/xlink" width="57" height="57" viewBox="0 0 57 57">
  <defs>
    <linearGradient id="linear-gradient" x1="0.756" y1="0.971" x2="0.265" y2="0.065" gradientUnits="objectBoundingBox">
      <stop offset="0" stop-color="#a6c739"/>
      <stop offset="0.5" stop-color="#dad500"/>
      <stop offset="1" stop-color="#ed76aa"/>
    </linearGradient>
  </defs>
  <g id="Group_184" data-name="Group 184" transform="translate(21752.5 18933.5)">
    <circle id="Ellipse_7" data-name="Ellipse 7" cx="28" cy="28" r="28" transform="translate(-21752 -18933)" stroke="rgba(0,0,0,0)" stroke-miterlimit="10" stroke-width="1" fill="url(#linear-gradient)"/>
    <g id="Group_183" data-name="Group 183" transform="translate(-21740.855 -18920.512)">
      <path id="Path_55" data-name="Path 55" d="M477.028,302.652v7.873c0,.664.28.944.944.944h4.453c.664,0,.944-.28.944-.944v-1.313h-1.342v.664a.3.3,0,0,1-.324.324h-2.875a.3.3,0,0,1-.324-.324V302c0-.664-.28-.944-.944-.944H476.07v1.268h.633A.289.289,0,0,1,477.028,302.652Z" transform="translate(-476.07 -301.059)" fill="#fff"/>
      <rect id="Rectangle_50" data-name="Rectangle 50" width="1.283" height="1.223" transform="translate(7.755 0.001)" fill="#fff"/>
      <path id="Path_56" data-name="Path 56" d="M525.6,305.549v4.969c0,.664.28.944.944.944H529.9v-3.509h.561a.8.8,0,0,1,.737.309l1.356,2.507a1.113,1.113,0,0,0,1.239.693h1.032v-1.223h-.457c-.369,0-.516-.059-.633-.295l-1.106-2.02c-.25-.473-.5-.561-.5-.561v-.029a1.834,1.834,0,0,0,.561-.561l2.02-2.772h-1.637l-1.725,2.417a.968.968,0,0,1-.782.324H529.9v-4.836c0-.664-.28-.856-.944-.856h-1.415v1.223h.6a.289.289,0,0,1,.324.324v7.638h-1.135a.289.289,0,0,1-.324-.324v-4.969c0-.664-.28-.944-.944-.944h-1.4v1.223h.605a.288.288,0,0,1,.324.324Z" transform="translate(-517.875 -301.05)" fill="#fff"/>
      <path id="Path_57" data-name="Path 57" d="M598.037,328.7a4.367,4.367,0,0,0,2.875-1.091l-.62-1.018a3.43,3.43,0,0,1-2.182.87,2.524,2.524,0,0,1-2.566-2.491h5.441s.045-.4.045-.59c0-1.931-1.12-3.494-3.214-3.494a3.685,3.685,0,0,0-3.746,3.908,3.8,3.8,0,0,0,3.967,3.908Zm-.235-6.679a1.77,1.77,0,0,1,1.755,1.9h-3.951A2.149,2.149,0,0,1,597.8,322.025Z" transform="translate(-577.572 -318.116)" fill="#fff"/>
      <path id="Path_58" data-name="Path 58" d="M672.365,327.3a.289.289,0,0,1-.324-.324v-3.17c0-1.651-.649-2.919-3.066-2.919-.723,0-2.581.178-2.581,1.4v.737h1.342V322.6c0-.486.87-.575,1.223-.575,1.165,0,1.651.471,1.651,1.784v.074h-.324c-1.253,0-4.5.147-4.5,2.55a2.334,2.334,0,0,0,2.536,2.271,2.549,2.549,0,0,0,2.374-1.475h.029a3.231,3.231,0,0,0-.029.442c0,.531.266.856.928.856h1.342V327.3h-.6Zm-1.741-2.122a2.261,2.261,0,0,1-1.991,2.374,1.242,1.242,0,0,1-1.4-1.194c0-1.371,1.946-1.43,3.023-1.43h.369Z" transform="translate(-639.265 -318.116)" fill="#fff"/>
      <rect id="Rectangle_51" data-name="Rectangle 51" width="0.974" height="0.93" transform="translate(5.914 22.979)" fill="#fff"/>
      <path id="Path_59" data-name="Path 59" d="M483.037,472.133v-3.775c0-.5-.213-.717-.717-.717h-2.05l-1.31,1.837a.733.733,0,0,1-.593.246h-.5V466.05c0-.5-.213-.65-.717-.65H476.07v.93h.459a.219.219,0,0,1,.246.246v6.732h1.086v-2.666h.425a.607.607,0,0,1,.561.235l1.03,1.9a.844.844,0,0,0,.941.526h2.923v-.93h-.459a.219.219,0,0,1-.246-.246Zm-2.264.021-.84-1.534c-.19-.358-.38-.425-.38-.425v-.022a1.383,1.383,0,0,0,.425-.425l.857-1.176h.879a.219.219,0,0,1,.246.246v3.562h-.706c-.28,0-.393-.045-.481-.224Z" transform="translate(-476.07 -442.422)" fill="#fff"/>
      <path id="Path_60" data-name="Path 60" d="M531.006,475.329v-2.6h1.355v-.874h-1.355V470.3h-1.064v1.556h-.762v.874h.74v2.722a1.95,1.95,0,0,0,2.161,2.117,2.76,2.76,0,0,0,.38-.022v-.963a1.3,1.3,0,0,1-.257.022A1.119,1.119,0,0,1,531.006,475.329Z" transform="translate(-521.755 -446.637)" fill="#fff"/>
      <path id="Path_61" data-name="Path 61" d="M555.122,485.443a2.023,2.023,0,0,1-.056-4.043c.414,0,1.053.179,1.053.583v.313h.986v-.583c0-.963-1.355-1.243-2.038-1.243a2.969,2.969,0,1,0-.022,5.936,3.12,3.12,0,0,0,2.307-.974l-.47-.773A2.552,2.552,0,0,1,555.122,485.443Z" transform="translate(-541.401 -455.385)" fill="#fff"/>
      <path id="Path_62" data-name="Path 62" d="M593.186,472.15V469.7c0-1.444-.605-2.173-1.938-2.173a2.308,2.308,0,0,0-2.106,1.265h-.022s.022-.2.022-.47v-2.206c0-.481-.212-.695-.717-.695H587.35v.93h.46a.219.219,0,0,1,.246.246v6.732h1.086v-2.655a2.307,2.307,0,0,1,.1-.751,1.866,1.866,0,0,1,1.792-1.4c.907,0,1.075.628,1.075,1.422v2.666c0,.5.213.717.717.717h1.064v-.93h-.459a.219.219,0,0,1-.246-.246Z" transform="translate(-571.792 -442.439)" fill="#fff"/>
      <path id="Path_63" data-name="Path 63" d="M635.785,480.47a2.786,2.786,0,0,0-2.845,2.968,2.889,2.889,0,0,0,3.013,2.968,3.316,3.316,0,0,0,2.184-.829l-.47-.773a2.607,2.607,0,0,1-1.658.661,1.919,1.919,0,0,1-1.949-1.893h4.133s.034-.3.034-.447A2.41,2.41,0,0,0,635.785,480.47Zm-1.681,2.307a1.632,1.632,0,0,1,1.669-1.444,1.344,1.344,0,0,1,1.332,1.444Z" transform="translate(-611.008 -455.385)" fill="#fff"/>
      <path id="Path_64" data-name="Path 64" d="M676.186,485.1v-2.452c0-1.444-.605-2.173-1.949-2.173a2.308,2.308,0,0,0-2.128,1.3h-.022a2.383,2.383,0,0,0,.022-.324v-.213c0-.414-.235-.628-.717-.628H670.35v.93h.459a.219.219,0,0,1,.246.246v4.492h1.086v-2.655a2.336,2.336,0,0,1,.1-.762,1.836,1.836,0,0,1,1.792-1.388c.874,0,1.064.628,1.064,1.422v2.666c0,.5.213.717.717.717h1.075v-.93h-.46a.219.219,0,0,1-.246-.246Z" transform="translate(-643.188 -455.394)" fill="#fff"/>
      <path id="Path_65" data-name="Path 65" d="M477.225,390.886v7.353H479v-4.345a3.8,3.8,0,0,1,.165-1.247,3.005,3.005,0,0,1,2.935-2.273c1.432,0,1.742,1.026,1.742,2.329v4.363c0,.825.348,1.173,1.173,1.173h1.76v-1.523h-.752a.358.358,0,0,1-.4-.4V392.3c0-2.366-.99-3.557-3.19-3.557a3.776,3.776,0,0,0-3.484,2.127h-.036a3.949,3.949,0,0,0,.036-.531v-.348c0-.678-.384-1.026-1.173-1.026H476.07v1.523h.752a.359.359,0,0,1,.4.4Z" transform="translate(-476.07 -376.48)" fill="#fff"/>
      <path id="Path_66" data-name="Path 66" d="M559.356,393.1c0-2.4-1.394-4.345-4-4.345a4.583,4.583,0,0,0-4.658,4.86,4.731,4.731,0,0,0,4.932,4.86,5.434,5.434,0,0,0,3.576-1.356l-.77-1.265a4.266,4.266,0,0,1-2.714,1.082,3.141,3.141,0,0,1-3.19-3.1H559.3s.056-.495.056-.734Zm-6.749-.569a2.674,2.674,0,0,1,2.732-2.366,2.2,2.2,0,0,1,2.182,2.366Z" transform="translate(-540.266 -376.489)" fill="#fff"/>
      <path id="Path_67" data-name="Path 67" d="M622.821,391.31l-1.632,5.52a7.4,7.4,0,0,0-.22.99h-.036a9.954,9.954,0,0,0-.238-.99l-2.017-6.473h-1.632l-2,6.473c-.147.477-.257.99-.257.99h-.036a7.649,7.649,0,0,0-.219-.99l-1.65-5.52c-.239-.789-.551-.99-1.376-.99H610.39v1.523h.257c.294,0,.477.074.569.366l2.438,7.39h2.017l1.907-5.96c.147-.477.257-1.008.257-1.008h.036s.11.531.257,1.008l1.925,5.96h2l2.438-7.39c.092-.294.275-.366.569-.366h.257V390.32h-1.1c-.825,0-1.155.2-1.394.99Z" transform="translate(-591.61 -377.839)" fill="#fff"/>
    </g>
  </g>
</svg>
