<svg xmlns="http://www.w3.org/2000/svg" width="34" height="43.273" viewBox="0 0 34 43.273">
  <path id="spray-bottle" d="M64.455,28.364A1.545,1.545,0,0,0,66,26.818,10.83,10.83,0,0,0,55.182,16H41.273a3.091,3.091,0,0,0-3.091,3.091v9.273A4.636,4.636,0,0,1,33.545,33a1.545,1.545,0,1,0,0,3.091,7.727,7.727,0,0,0,7.727-7.727h6.182V33.12a4.611,4.611,0,0,1-1.739,3.62l-3.091,2.471a7.687,7.687,0,0,0-2.9,6.033V56.182a3.091,3.091,0,0,0,3.091,3.091H62.909A3.091,3.091,0,0,0,66,56.182V53.761a52.329,52.329,0,0,0-6.568-25.4ZM41.273,19.091H55.182a7.743,7.743,0,0,1,7.573,6.182H41.273Zm21.636,34.67v2.421H42.818V45.244a4.611,4.611,0,0,1,1.739-3.62l3.091-2.471a7.687,7.687,0,0,0,2.9-6.033V28.364h5.316A49.234,49.234,0,0,1,62.909,53.761Z" transform="translate(-32 -16)" fill="#a6c739"/>
</svg>
