<svg xmlns="http://www.w3.org/2000/svg" xmlns:xlink="http://www.w3.org/1999/xlink" width="98.782" height="93.769" viewBox="0 0 98.782 93.769">
  <defs>
    <clipPath id="clip-path">
      <rect id="Rectangle_34" data-name="Rectangle 34" width="98.782" height="93.769" fill="#dad500"/>
    </clipPath>
  </defs>
  <g id="star_hearing" clip-path="url(#clip-path)">
    <path id="Path_25" data-name="Path 25" d="M581.124,511.965c-.273,19.866-.576,20.173-20.438,20.651,19.866.273,20.173.576,20.651,20.438.273-19.867.576-20.173,20.438-20.651-19.866-.273-20.172-.576-20.651-20.438" transform="translate(-502.993 -459.286)" fill="#dad500"/>
    <path id="Path_26" data-name="Path 26" d="M17.683,506.916c-.236,17.188-.5,17.452-17.683,17.866,17.188.236,17.453.5,17.867,17.682.236-17.188.5-17.453,17.682-17.867-17.188-.236-17.453-.5-17.867-17.682" transform="translate(0 -454.756)" fill="#dad500"/>
    <path id="Path_27" data-name="Path 27" d="M546.951,157.818c.118-8.594.249-8.726,8.841-8.933-8.594-.118-8.726-.249-8.933-8.841-.118,8.594-.249,8.726-8.841,8.933,8.594.118,8.726.249,8.933,8.841" transform="translate(-482.658 -125.633)" fill="#dad500"/>
    <path id="Path_28" data-name="Path 28" d="M47.767,0C47.161,44.1,46.489,44.775,2.4,45.837c44.1.605,44.775,1.278,45.837,45.365.606-44.1,1.278-44.775,45.365-45.837C49.508,44.759,48.829,44.087,47.767,0" transform="translate(-2.155)" fill="#dad500"/>
  </g>
</svg>
