<svg id="tiktok-logo" xmlns="http://www.w3.org/2000/svg" width="23.111" height="24" viewBox="0 0 23.111 24">
  <path id="tiktok-logo-2" data-name="tiktok-logo" d="M46.222,22.222a5.339,5.339,0,0,1-5.333-5.333A.889.889,0,0,0,40,16H35.556a.889.889,0,0,0-.889.889V31.556a2.222,2.222,0,1,1-3.174-2.009.889.889,0,0,0,.508-.8V24a.889.889,0,0,0-1.044-.876A8.609,8.609,0,0,0,24,31.556a8.444,8.444,0,0,0,16.889,0V27.143a11.472,11.472,0,0,0,5.333,1.3.889.889,0,0,0,.889-.889V23.111A.889.889,0,0,0,46.222,22.222Zm-.889,4.4a9.688,9.688,0,0,1-4.814-1.794.889.889,0,0,0-1.408.723v6a6.667,6.667,0,1,1-13.333,0,6.859,6.859,0,0,1,4.444-6.4V28.23a4,4,0,1,0,6.222,3.326V17.778h2.722a7.127,7.127,0,0,0,6.167,6.167Z" transform="translate(-24 -16)" fill="#69c9d0"/>
</svg>
